# xmcd
#
# Track frame offsets: 
#        183
#        14220
#        33283
#        49788
#        69738
#        87848
#        105043
#        118568
#        137403
#        153933
#        169895
#        187185
#        206045
#        222323
#        245038
#        259528
#        284333
#        308908
#
# Disc length: 4519 seconds
#
# Revision: 0
# Processed by: cddbd v1.5PL3 Copyright (c) Steve Scherf et al.
# Submitted via: ExactAudioCopy v0.95a5
#
DISCID=0411a512
DTITLE=Various Artist - Serious Beats Vol. 12 - Cd1
DYEAR=1994
DGENRE=Dance
TTITLE0=South Street Player - Who Keeps Changing Your Mind (Radio Edit
TTITLE0=)
TTITLE1=Marmion - Schöneberg (Marmion Remix)
TTITLE2=Tony Di-Bart - The Real Thing (House Mix)
TTITLE3=Candy Rippers - Feel'n
TTITLE4=Strawberry Bazaar - Draconia
TTITLE5=Smooth Touch - House Of Love (Raise Your House Mix)
TTITLE6=Robert Armani - Hit Hard
TTITLE7=Luvspunge - Do You Feel What I'm Feeling
TTITLE8=Subterrania Ft. Ann Consuelo - Look Into My Eyes (7" Mix)
TTITLE9=Thyone Girls - Keep on Pumpin' (Rhythm In Action Mix)
TTITLE10=Coloured Vision - Virtual Reality (Extended)
TTITLE11=Chestnut - Revelation Of A New Order (Phenomania Mix)
TTITLE12=Asphyx - Flashing (Original Mix)
TTITLE13=Trancesetters - Secrets Of Meditation (Remix)
TTITLE14=Movin' Melodies - La Luna
TTITLE15=Private Productions - The Feeling
TTITLE16=Disco Anthem - Scream
TTITLE17=Michele - Love Is History (Yuri's Deep Basement Mix)
EXTD=
EXTT0=
EXTT1=
EXTT2=
EXTT3=
EXTT4=
EXTT5=
EXTT6=
EXTT7=
EXTT8=
EXTT9=
EXTT10=
EXTT11=
EXTT12=
EXTT13=
EXTT14=
EXTT15=
EXTT16=
EXTT17=
PLAYORDER=
